<?xml version="1.0" standalone="no"?>
<!DOCTYPE svg PUBLIC "-//W3C//DTD SVG 20010904//EN"
 "http://www.w3.org/TR/2001/REC-SVG-20010904/DTD/svg10.dtd">
<svg version="1.0" xmlns="http://www.w3.org/2000/svg"
 width="682.000000pt" height="682.000000pt" viewBox="0 0 682.000000 682.000000"
 preserveAspectRatio="xMidYMid meet">

<g transform="translate(0.000000,682.000000) scale(0.100000,-0.100000)"
fill="#000000" stroke="none">
<path d="M2587 6024 c-6 -21 -25 -180 -31 -264 -7 -105 -35 -365 -42 -390 -4
-14 -20 -43 -37 -64 -38 -49 -53 -122 -62 -301 -5 -107 -3 -151 14 -250 24
-135 37 -155 114 -176 52 -14 70 -29 107 -95 53 -92 144 -173 261 -231 134
-67 210 -91 344 -109 28 -4 58 -13 68 -22 21 -19 22 -70 1 -101 -16 -22 -20
-23 -98 -16 -197 17 -262 5 -340 -61 -24 -21 -57 -37 -90 -44 -98 -20 -140
-66 -160 -174 -7 -37 -55 -96 -78 -96 -5 0 -26 11 -46 25 -44 30 -76 32 -120
5 -52 -32 -68 -83 -76 -250 -4 -80 -11 -185 -17 -235 -5 -49 -13 -129 -18
-177 -4 -48 -14 -94 -21 -103 -11 -13 -68 -15 -449 -15 -504 0 -488 3 -476
-79 3 -25 24 -116 45 -201 21 -85 45 -186 54 -225 36 -161 145 -615 192 -798
28 -108 28 -109 -29 -169 -17 -19 -39 -28 -73 -33 -151 -20 -227 -35 -240 -46
-30 -24 -72 -99 -88 -152 -19 -66 -34 -83 -102 -113 -82 -36 -118 -100 -76
-136 44 -40 134 -82 221 -104 88 -22 182 -36 450 -65 52 -6 99 -13 105 -17 11
-7 124 -15 446 -31 107 -6 283 -15 390 -21 324 -17 867 -22 1185 -11 675 24
823 32 895 45 41 8 145 20 230 26 225 15 521 61 722 110 199 49 236 127 93
198 -128 63 -756 152 -811 114 -6 -4 -13 -15 -17 -24 -11 -29 -26 -21 -48 27
-11 24 -36 60 -55 80 -19 20 -34 40 -34 45 0 18 37 29 146 44 250 36 274 44
274 95 0 53 -11 55 -289 62 -141 3 -344 11 -451 18 -165 10 -206 16 -262 38
-71 26 -89 43 -81 74 5 16 16 19 77 19 93 0 115 12 136 76 17 54 52 92 133
145 45 30 48 30 72 15 40 -27 75 -19 150 31 189 128 337 248 380 307 24 33 29
53 36 132 4 51 13 103 20 115 7 14 9 43 4 83 -3 34 -6 85 -5 114 0 29 -6 78
-14 110 -13 49 -65 274 -119 512 -9 36 -24 90 -35 120 -11 30 -27 86 -36 124
-20 86 -59 136 -132 172 -50 25 -61 26 -133 20 -66 -5 -80 -4 -85 9 -3 9 3 23
14 32 28 24 25 44 -12 80 -51 48 -170 129 -209 141 -38 13 -195 22 -503 28
-154 3 -212 7 -218 16 -4 7 -8 32 -8 56 0 49 6 53 115 72 96 16 249 71 375
133 80 40 122 69 178 122 41 38 83 86 93 107 21 41 51 58 102 58 37 0 91 30
107 60 36 67 61 385 41 524 -6 43 -22 104 -36 135 -31 72 -42 161 -51 401 -3
107 -9 200 -13 205 -3 6 -8 -102 -11 -240 -5 -237 -6 -250 -24 -250 -12 0 -32
21 -57 63 -61 101 -124 166 -231 243 -126 90 -187 121 -313 160 -55 17 -122
38 -150 46 -34 11 -105 17 -226 20 -230 6 -333 -10 -474 -73 -55 -25 -118 -52
-140 -60 -42 -15 -169 -119 -206 -169 -40 -55 -122 -134 -132 -128 -10 6 -3
202 15 386 8 83 8 121 1 128 -8 8 -13 5 -16 -7z m1968 -3196 c7 -25 77 -176
100 -220 8 -14 15 -52 15 -83 l0 -57 -78 -82 c-84 -86 -124 -140 -164 -221
-24 -48 -69 -179 -82 -238 -4 -15 -21 -44 -40 -64 l-33 -36 -49 18 c-84 31
-87 44 -29 124 23 31 25 43 25 144 0 90 3 115 19 141 23 38 35 79 52 174 11
66 18 80 71 145 32 40 81 118 108 175 50 102 72 123 85 80z"/>
<path d="M4531 6005 c0 -35 2 -37 11 -19 7 15 7 28 -1 40 -9 16 -10 12 -10
-21z"/>
</g>
</svg>
